# xmcd
#
# Track frame offsets:
# 150
# 20396
# 38065
# 48522
# 60510
# 75831
# 89492
# 116038
# 137464
# 150256
# 171366
# 195832
#
# Disc length: 2852 seconds
#
#
# Revision: 0
# Processed by: cddbd v1.5.2PL0 Copyright (c) Steve Scherf et al.
# Submitted via: FreeRIP 2.951 
#
DISCID=850b220c
DTITLE=Mighty Orq - Prayer Book
DYEAR=2002
DGENRE=Blues
TTITLE0=Walkin' Blues
TTITLE1=Good Looking Woman Blues
TTITLE2=Monarch Jump
TTITLE3=Wine Box
TTITLE4=Waltz In D
TTITLE5=Preachin' Blues
TTITLE6=Snitram's Palace
TTITLE7=Dutch Mushrooms
TTITLE8=Night Light
TTITLE9=If That's My Prayer Book (Let Us Pray)
TTITLE10=Still Alone
TTITLE11=I Believe (When I Fall In Love It Will Be Forever)
EXTD=Produced by Mighty Orq and Marco Saenz\n\nThis is BLUES....NOT ROCK!!
EXTT0=
EXTT1=
EXTT2=
EXTT3=
EXTT4=
EXTT5=
EXTT6=
EXTT7=
EXTT8=
EXTT9=
EXTT10=
EXTT11=
PLAYORDER=
